<?xml version="1.0" encoding="utf-8"?>
<!-- Generator: Adobe Illustrator 15.1.0, SVG Export Plug-In . SVG Version: 6.00 Build 0)  -->
<!DOCTYPE svg PUBLIC "-//W3C//DTD SVG 1.1//EN" "http://www.w3.org/Graphics/SVG/1.1/DTD/svg11.dtd">
<svg version="1.1" id="Layer_1" xmlns="http://www.w3.org/2000/svg" xmlns:xlink="http://www.w3.org/1999/xlink" x="0px" y="0px"
	 width="864px" height="864px" viewBox="0 0 864 864" enable-background="new 0 0 864 864" xml:space="preserve">
<g>
	<path fill="#27AAE1" d="M124.109,308.596c-2.445-22.003-2.115-44.577-1.129-66.425c2.551-56.529,8.19-112.92,26.106-167.019
		c-7.94,0.684-16.567,1.337-24.133,1.344l1.032-15.244c23.384,0.012,45.926-4.183,69.309-4.171l-1.047,15.591
		c-9.297,0.275-7.956,1.031-17.97,1.969c-15.92,55.579-24.524,116.7-26.965,170.803c-1.001,22.196-0.958,44.091,1.816,66.457
		c23.57,3.496,35.784,7.174,59.464,8.243c36.378,1.642,67.874-2.845,69.939-48.623c1.205-26.705-17.31-43.178-42.019-44.293
		c-14.414-0.65-28.954,9.119-29.674,25.072c-0.595,13.178,8.202,24.001,20.447,26.986l0.965,16.724
		c-18.781-2.932-37.233-20.793-36.31-41.255c1.236-27.397,17.821-44.373,45.619-43.119c31.23,1.41,63.3,22.317,61.719,57.345
		c-2.832,62.772-40.521,67.327-94.745,64.881c-30.887-1.394-61.882-8.005-92.691-11.133l1.031-15.245L124.109,308.596z"/>
	<path fill="#27AAE1" d="M355.303,181.058c22.618-5.294,45.784,3.84,51.437,27.992c6.191,26.452-17.307,52.17-42.226,58.003
		c-48.303,11.307-82.514-38.106-92.972-79.329l-6.133,1.436l-3.092-16.665l6.134-1.436c-5.785-47.169,19.989-109.813,69.826-121.479
		c30.286-7.089,65.703,31.931,76.561,78.318c1.794,7.667,2.733,15.13,3.377,23.066c0.27,1.15-10.465,3.663-25.799,7.252
		c-18.401,4.307-43.793,9.847-65.645,14.961c-9.967,2.333-18.401,4.308-25.595,6.396l0.897,3.833
		c6.999,29.902,23.314,75.416,58.583,67.16c14.568-3.41,34.021-20.498,30.163-36.983c-3.051-13.034-21.306-18.466-33.19-15.684
		c-1.917,0.449-3.744,1.28-6.338,2.292l-0.815,3.425l-16.655-3.784C337.032,189.378,345.336,183.391,355.303,181.058z
		 M298.467,162.821c4.983-1.167,10.733-2.512,17.251-4.038c17.251-4.039,31.999-6.682,45.799-9.912
		c11.118-2.602,20.995-5.318,30.604-9.185c-6.012-25.685-21.144-79.967-53.729-72.34C300.438,76.23,296.027,128.212,298.467,162.821
		z"/>
	<path fill="#27AAE1" d="M504.664,62.959l-0.823,3.469c-10.892,24.049-17.413,35.147-21.59,46.535
		c21.788,3.473,43.088,7.679,64.972,10.37l-2.457,16.755c-23.056-2.835-45.187-6.747-68.537-10.412
		c-5.337,17.592-9.207,36.157-11.466,54.523c-4.469,36.343-14.183,112.106,34.274,118.065c24.618,3.027,39.639-32.018,42.042-51.556
		c2.162-17.585,1.247-35.945-21.809-38.781c-13.678-1.682-23.758,12.549-25.2,24.272l-18.113,2.136l0.33-5.91
		c2.835-23.056,28.685-39.711,50.959-36.972c21.884,2.691,36.098,29.034,33.647,48.963c-3.124,25.401-25.284,79.798-57.327,75.858
		c-67.997-8.362-77.534-88.873-70.758-143.972c2.114-17.194,5.889-34.978,11.863-51.301l-14.459-1.778l2.896-17.098l17.146,2.505
		c4.664-12.12,9.671-23.802,15.85-35.339l-30.829-7.361L439,48.537L504.664,62.959z"/>
	<path fill="#27AAE1" d="M597.004,310.866c-4.69,38.142-6.764,77.573-4.186,114.672l-18.894,2.032
		c-3.672-60.465,1.234-126.167,9.326-191.96c5.335-43.386,11.901-87.104,18.741-129.821l30.227-0.639
		C622.291,169.75,605.623,240.781,597.004,310.866z"/>
	<path fill="#27AAE1" d="M714.991,160.359l-0.823,3.469c-10.892,24.049-17.413,35.147-21.591,46.535
		c21.787,3.473,43.088,7.679,64.972,10.37l-2.457,16.755c-23.057-2.835-45.187-6.747-68.537-10.412
		c-5.336,17.592-9.206,36.157-11.465,54.523c-4.47,36.342-14.184,112.106,34.273,118.065c24.619,3.027,39.64-32.018,42.042-51.556
		c2.163-17.585,1.247-35.945-21.81-38.781c-13.677-1.682-23.758,12.549-25.199,24.272l-18.113,2.136l0.33-5.91
		c2.836-23.056,28.685-39.711,50.959-36.972c21.884,2.691,36.099,29.034,33.647,48.963c-3.123,25.401-25.284,79.798-57.328,75.857
		c-67.995-8.362-77.532-88.872-70.756-143.972c2.114-17.194,5.888-34.978,11.862-51.301l-14.459-1.778l2.896-17.098l17.146,2.505
		c4.663-12.12,9.671-23.802,15.85-35.339l-30.83-7.361l3.727-17.393L714.991,160.359z"/>
	<path fill="#27AAE1" d="M178.309,508.569c-25.948-41.787-50.456-81.258-42.997-116.829c5.285-25.203,28.565-37.999,57.928-31.841
		c22.805,4.782,61.392,30.453,56.36,54.449c-2.526,12.044-20.979,15.129-32.767,12.657c-2.967-0.623-12.615-3.2-12.236-10.253
		l0.138-2.572l-21.562-0.513l-0.017,2.543c-0.091,14.235,9.628,25.129,25.367,28.429c14.491,3.039,28.458,2.513,39.329-1.482
		c12.837-4.72,21.051-14.024,23.753-26.913c3.207-15.291-5.294-32.425-23.935-48.244c-15.274-12.961-35.979-23.609-52.746-27.125
		c-36.504-7.655-82.07,7.14-89.088,40.608c-11.197,53.396,21.154,98.071,52.442,141.274c30.11,41.58,58.552,80.854,49.088,125.98
		c-6.875,32.782-41.113,37.746-68.345,32.035c-40.6-8.514-77.833-40.019-69.868-78.005c5.935-28.305,9.518-45.39,42.412-38.492
		c20.086,4.212,39.51,23.002,35.269,43.231c-3.232,15.413-19.892,13.657-26.904,12.188l-2.711-0.569l-2.058,19.664l2.251,0.435
		c20.71,3.997,46.879-6.299,51.317-27.465c3.102-14.793-1.417-30.039-12.724-42.93c-10.444-11.908-25.845-20.71-42.251-24.151
		c-42.634-8.939-68.247,18.196-74.719,49.057c-10.644,50.758,41.557,94.504,96.024,105.925c38.59,8.093,84.064-1.988,92.715-43.245
		C238.463,605.446,207.883,556.197,178.309,508.569z"/>
	<path fill="#27AAE1" d="M274.834,482.173l-4.354,45.083c15.215-10.823,35.462-20.63,54.61-18.275
		c54.318,6.68,44.792,103.49,40.522,141.444l-17.243-1.724c3.021-27.793,13.78-118.502-26.861-123.5
		c-17.585-2.163-37.627,12.43-50.107,23.59l-13.784,141.112l-23.934-2.15l15.396-189.707l-16.167-0.797l0.161-17.436
		L274.834,482.173z"/>
	<path fill="#27AAE1" d="M458.974,507.771c55.512-0.55,84.495,63.343,84.977,111.768c0.476,48.033-27.235,112.486-82.748,113.039
		c-55.906,0.553-84.889-63.34-85.365-111.37C375.357,572.78,403.067,508.326,458.974,507.771z M461.031,715.252
		c45.67-0.452,58.906-55.313,58.521-94.29c-0.384-38.583-14.733-95.928-60.402-95.475c-46.458,0.461-56.919,57.263-56.541,95.452
		C402.988,659.129,414.574,715.714,461.031,715.252z"/>
	<path fill="#27AAE1" d="M574.132,502.137c-0.528,4.299-1.009,8.207-1.586,12.896c-4.71,38.296-10.733,103.405,33.034,108.788
		c24.619,3.027,43.858-46.97,48.088-81.358c1.394-11.332,1.079-21.685-1.031-27.101l33.426-13.741
		c2.66,36.427-2.158,69.155,44.345,74.874c30.09,3.7,55.555-9.829,59.303-40.31c2.979-24.229-7.334-53.265-30.991-64.108
		l8.223-15.253c29.184,14.3,42.931,50.899,39.182,81.38c-4.949,40.25-41.668,67.866-81.137,63.013
		c-23.838-2.932-45.891-17.147-58.042-37.683c-6.882,26.922-29.6,95.532-65.552,91.11c-60.961-7.497-63.075-112.88-57.693-156.646
		c2.355-19.148,7.15-38.789,14.489-56.531l32.345,7.944C583.537,467.592,576.438,483.38,574.132,502.137z"/>
</g>
<path fill="#58595B" d="M506.666,371.675l-23.424-10.916c6.157-2.964,12.356-5.914,18.489-8.886
	c2.495-1.204,3.533-4.201,2.325-6.691c-1.206-2.49-4.198-3.534-6.693-2.325c-6.426,3.111-12.914,6.2-19.362,9.306l4.76-30.733
	c0.42-2.736-1.454-5.296-4.187-5.718c-2.71-0.415-5.295,1.446-5.716,4.185l-5.813,37.53c-8.927,4.288-17.824,8.582-26.789,12.852
	l2.738-32.604c0.168-2.016-0.888-3.932-2.681-4.865c-1.793-0.933-3.971-0.693-5.521,0.601l-31.181,26.033l4.895-28.977
	l33.964-19.085c2.415-1.356,3.269-4.411,1.914-6.823c-1.36-2.408-4.405-3.263-6.823-1.914l-26.901,15.12l3.313-19.601
	c0.458-2.727-1.377-5.313-4.106-5.775c-2.649-0.421-5.311,1.376-5.774,4.106l-3.399,20.11l-21.734-22.691
	c-1.911-1.995-5.082-2.067-7.084-0.152c-1.998,1.914-2.064,5.085-0.152,7.085l26.887,28.069l-4.507,26.653l-23.238-30.12
	c-1.178-1.521-3.116-2.237-4.997-1.842c-1.879,0.395-3.369,1.829-3.833,3.693l-7.987,32.082
	c-6.058-5.681-12.111-11.326-18.168-16.951l2.245-39.277c0.155-2.764-1.972-5.148-4.718-5.288c-2.76-0.157-5.128,1.955-5.288,4.717
	l-1.771,30.998c-6.054-5.605-12.105-11.197-18.125-16.755c-2.028-1.875-5.2-1.751-7.08,0.282c-1.876,2.032-1.751,5.202,0.283,7.079
	c6.014,5.553,12.059,11.14,18.105,16.739l-29.786,3.987c-2.742,0.368-4.666,2.89-4.301,5.633c0.31,2.309,2.143,4.037,4.353,4.307
	c0.415,0.051,0.844,0.053,1.28-0.005l37.97-5.085c6.69,6.213,13.377,12.457,20.065,18.742l-46.808,12.575
	c-1.966,0.526-3.414,2.189-3.67,4.209c-0.255,2.019,0.736,3.992,2.509,4.991l43.878,24.759c-9.447,4.384-18.879,8.73-28.325,13.07
	l-29.511-14.563c-2.48-1.212-5.482-0.21-6.709,2.271c-1.224,2.481-0.207,5.485,2.273,6.708l22.219,10.974
	c-7.979,3.657-15.969,7.357-23.94,10.985c-2.517,1.146-3.629,4.119-2.482,6.637c0.75,1.646,2.28,2.69,3.952,2.896
	c0.887,0.109,2.352,0.048,3.224-0.349c8.466-3.854,15-8.024,25.97-11.604l-3.65,29.68c-0.337,2.748,1.357,5.214,4.104,5.552
	c2.746,0.338,4.988-1.644,5.326-4.393l4.405-35.818c5.294-4.134,16.136-7.578,24.354-11.388l-6.991,40.146
	c-0.341,2.004,0.491,4.009,2.214,5.084c1.715,1.084,3.895,0.997,5.546-0.186l31.488-22.697l-4.449,26.239l-30.527,13.332
	c-2.534,1.106-3.695,4.061-2.587,6.593c1.107,2.537,4.051,3.691,6.595,2.585l24.516-10.703l-3.724,21.99
	c-0.461,2.733,1.374,5.345,4.118,5.683c0.075,0.009,0.15,0.019,0.228,0.027c2.641,0.325,5.085-1.391,5.535-4.041l3.625-21.426
	l19.024,19.626c0.827,0.852,1.884,1.356,2.982,1.492c1.447,0.177,2.971-0.272,4.102-1.37c1.981-1.925,2.026-5.1,0.103-7.086
	l-24.146-24.869l4.696-27.757l21.446,33.588c0.817,1.284,2.157,2.1,3.614,2.279c0.49,0.06,0.99,0.046,1.493-0.044
	c1.997-0.355,3.584-1.882,4.016-3.864l7.721-35.532c5.353,5.573,10.624,11.219,15.879,16.874l-11.063,32.553
	c-0.895,2.622,0.51,5.467,3.131,6.361c0.331,0.109,0.668,0.185,1.002,0.225c2.307,0.284,4.575-1.072,5.349-3.359l9.323-27.425
	c6.027,6.619,12.002,13.273,17.857,20.012c0.842,0.972,1.979,1.54,3.168,1.687c1.36,0.167,2.783-0.22,3.899-1.191
	c2.086-1.813,2.313-4.976,0.494-7.067c-5.782-6.655-11.679-13.222-17.624-19.75l25.814-4.61c2.723-0.482,4.536-3.085,4.053-5.81
	c-0.488-2.722-3.076-4.529-5.817-4.048l-32.13,5.734c-6.59-7.105-13.256-14.146-20.004-21.118l50.816-20.446
	c1.742-0.699,2.948-2.313,3.123-4.18c0.17-1.87-0.712-3.679-2.292-4.689l-38.538-24.615c9.451-4.504,18.847-9.029,28.26-13.551
	l30.869,14.385c0.49,0.228,0.994,0.371,1.505,0.435c2.098,0.255,4.214-0.84,5.152-2.859
	C510.263,375.824,509.175,372.844,506.666,371.675z M402.066,373.78l29.938-24.993l-2.217,26.448
	c-10.438,4.961-20.887,9.915-31.357,14.845l2.665-15.777C401.425,374.135,401.78,374.021,402.066,373.78z M369.254,339.772
	l22.571,29.253l-3.835,22.691c-8.49-8.222-17.02-16.363-25.58-24.44L369.254,339.772z M355.509,409.457l-38.771-21.88l40.679-10.928
	c0.081-0.021,0.146-0.07,0.225-0.095c7.671,7.252,15.311,14.556,22.918,21.92c-8.16,3.822-16.329,7.619-24.496,11.416
	C355.877,409.749,355.719,409.572,355.509,409.457z M351.027,455.459l5.961-34.941c9.458-4.401,18.917-8.799,28.366-13.227
	l-4.512,26.695L351.027,455.459z M411.931,466.32l-20.869-32.686l3.612-21.358c8.011,7.891,15.942,15.872,23.801,23.921
	L411.931,466.32z M468.247,407.744l-45.3,18.229c-0.104,0.041-0.192,0.114-0.297,0.161c-8.164-8.325-16.397-16.578-24.72-24.735
	c11.584-5.446,23.132-10.93,34.682-16.415L468.247,407.744z"/>
</svg>
